# xmcd
#
# Track frame offsets: 
#        150
#        15895
#        26997
#        42440
#        57855
#        79152
#        91778
#        107236
#        122281
#        135309
#        154503
#        165795
#        182449
#        204368
#        224608
#        239606
#        253470
#        266797
#
# Disc length: 3805 seconds
#
# Revision: 0
# Processed by: cddbd v1.5.2PL0 Copyright (c) Steve Scherf et al.
# Submitted via: ExactAudioCopyFreeDBPlugin 1.0
#
DISCID=ea0edb12
DTITLE=Эдит Пиаф - Неизвестная Эдит Пиаф
DYEAR=2003
DGENRE=Chanson
TTITLE0=Осенние листья (Autumn Leaves)
TTITLE1=Я ни о чем не жалею (No Regrets)
TTITLE2=Три колокола (The Three Bells)
TTITLE3=Жизнь в розовом свете (La Vie en Rose)
TTITLE4=Моя потерянная мелодия (My Lost Melody)
TTITLE5=Не плачь (Don't Cry)
TTITLE6=Гимн любви (Hymn to Love)
TTITLE7=Просто вальс (Simply Waltz)
TTITLE8=Потому что я тебя люблю ('Cause I Love You)
TTITLE9=Один маленький человечек (One Little Man)
TTITLE10=Мне все равно (I Shouldn't Care)
TTITLE11=Небеса благодарят (Heaven Have Mercy)
TTITLE12=Ты это не слышишь (Toi, Tu L'Entends Pas)
TTITLE13=Он был нужен (Fallait-II)
TTITLE14=Дети колокола (Les Momes De La Cloche)
TTITLE15=La Java De Cezigue
TTITLE16=Просто привет (Simple Comme Bonjour)
TTITLE17=Они танцуют под мою песню (On Danse Sur Ma Chanson)
EXTD=
EXTT0=
EXTT1=
EXTT2=
EXTT3=
EXTT4=
EXTT5=
EXTT6=
EXTT7=
EXTT8=
EXTT9=
EXTT10=
EXTT11=
EXTT12=
EXTT13=
EXTT14=
EXTT15=
EXTT16=
EXTT17=
PLAYORDER=
